<svg id="Warstwa_1" data-name="Warstwa 1" xmlns="http://www.w3.org/2000/svg" viewBox="0 0 188.22 26"><defs><style>.cls-1{fill:#fff;}.cls-2{fill:none;}.cls-3{isolation:isolate;}</style></defs><g id="Ellipse_8" data-name="Ellipse 8"><circle class="cls-1" cx="23.79" cy="7.47" r="4.15"/></g><g id="Ellipse_9" data-name="Ellipse 9"><circle class="cls-2" cx="24.06" cy="11.06" r="11.06"/><path class="cls-1" d="M35.11,10.49l0-.47c0-.13,0-.26,0-.38s0-.23-.05-.34v0c0-.15,0-.3-.08-.44s-.06-.3-.1-.45c-.08-.34-.19-.68-.3-1a.56.56,0,0,1,0-.12L34.34,7l-.05-.14s0-.1-.07-.14-.1-.23-.15-.35h0c-.08-.17-.17-.34-.26-.5a4.91,4.91,0,0,0-.28-.5h0c-.19-.31-.38-.6-.59-.88a1,1,0,0,1-.09-.13L32.6,4a.69.69,0,0,0-.11-.13l-.31-.35L32,3.39h0c-.11-.12-.22-.22-.34-.33a2.39,2.39,0,0,0-.23-.22l-.24-.2-.49-.4a11,11,0,0,0-.94-.63l-.35-.2L29,1.18h0L28.65,1h0L28.46.91c-.18-.07-.35-.15-.53-.21L27.35.5l-.6-.17-.5-.11L25.88.15,25.4.08l-.29,0-.29,0h-.2l-.56,0L23.5,0h-.19L23,.05l-.3,0-.48.07-.36.07-.51.11-.6.17L20.2.7c-.18.06-.36.14-.53.21L19.5,1s0,0,0,0l-.36.17h0c-.14.07-.26.13-.39.21l-.35.2a8.56,8.56,0,0,0-.94.63l-.49.4-.24.2a2.39,2.39,0,0,0-.23.22c-.12.11-.23.21-.34.33h0L16,3.55c-.11.11-.21.23-.31.35a.69.69,0,0,0-.11.13,3.36,3.36,0,0,0-.24.29l-.09.13c-.21.28-.41.57-.6.88h0c-.1.16-.19.33-.28.5s-.17.33-.25.5h0c-.12.25-.23.51-.34.77a.88.88,0,0,1-.05.15.56.56,0,0,1,0,.12,9,9,0,0,0-.3,1,3.63,3.63,0,0,0-.1.45c0,.14-.06.29-.09.44v0c0,.11,0,.22-.05.34s0,.25,0,.38a3.71,3.71,0,0,0,0,.47c0,.19,0,.38,0,.57a11.07,11.07,0,1,0,22.13,0C35.13,10.87,35.12,10.68,35.11,10.49Zm-11,10a9.42,9.42,0,0,1-9.4-9.41,9.43,9.43,0,0,1,1.7-5.38h0a9.39,9.39,0,0,1,15.4,0h0a7.85,7.85,0,0,1,.61,1,9.4,9.4,0,0,1-8.32,13.79Z"/></g><g id="Path_13" data-name="Path 13"><path class="cls-2" d="M39,11.06a14.94,14.94,0,1,1-29.87,0C9.13,2.81,39,2.81,39,11.06Z"/><path class="cls-1" d="M34.46,7.26,34.34,7l-.05-.14s0-.1-.07-.14-.1-.23-.15-.35h0l-.26-.09c-.16-.06-.33-.12-.51-.17h-.09L32.93,6l-.27-.08-.11,0-.42-.11-.15,0-.1,0h0l-.08,0h0l-.3-.07-.63-.13-.63-.11c-.51-.09-1-.16-1.57-.22a2.84,2.84,0,0,0-.42-.05c-.36,0-.73-.08-1.1-.1a3.13,3.13,0,0,1,.5.87c.62.06,1.23.13,1.82.22a25.21,25.21,0,0,1,3,.59c.59.16,1.15.33,1.67.52l.45.18A.56.56,0,0,1,34.46,7.26ZM39,10.68c0-.1,0-.2,0-.3a1.09,1.09,0,0,0,0-.17.33.33,0,0,0,0-.13.86.86,0,0,0-.07-.21l-.11-.26a2.68,2.68,0,0,0-.18-.33L38.31,9l0,0a1.63,1.63,0,0,0-.17-.2L38,8.65s0-.05-.06-.07l-.21-.22c-.1-.09-.21-.19-.33-.28l-.17-.14A1.33,1.33,0,0,0,37,7.8l-.38-.26c-.13-.08-.27-.17-.41-.24s-.29-.16-.44-.24a12,12,0,0,0-1.73-.73h0l-.26-.09c-.16-.06-.33-.12-.51-.17h-.09L32.93,6l-.27-.08-.11,0-.42-.11-.15,0-.1,0h0l-.08,0h0l-.3-.07-.63-.13-.63-.11c-.51-.09-1-.16-1.57-.22a2.84,2.84,0,0,0-.42-.05c-.36,0-.73-.08-1.1-.11h0l-.26,0c-.92-.06-1.86-.1-2.79-.1H22.74l-.39,0-.38,0C21.5,5,21,5,20.59,5h-.16l-.3,0H20l-.25,0-.55.07c-.42.05-.84.11-1.25.18h-.06q-.64.11-1.26.24l-.3.06h0L16,5.77l-.39.1-.12,0L15.2,6l-.26.07h0l-.26.08-.32.1-.26.09h0a12.63,12.63,0,0,0-1.74.73l-.44.24a7.61,7.61,0,0,0-.79.5h0a3.07,3.07,0,0,0-.36.27l-.16.14-.16.14a3.83,3.83,0,0,0-.28.29L10,8.8a1.63,1.63,0,0,0-.17.2l0,0c-.06.09-.12.17-.17.26s-.13.22-.19.33l-.13.3c0,.09-.05.18-.08.26s0,.13-.05.19a2,2,0,0,0,0,.24s0,.07,0,.11,0,0,0,0,0,.21,0,.31a14.94,14.94,0,1,0,29.87,0C39,10.94,39,10.81,39,10.68Zm-1.92,5.87A14,14,0,0,1,34,21a14.07,14.07,0,0,1-10,4.13A14.1,14.1,0,0,1,10,11.06,2.83,2.83,0,0,1,11,9a8.63,8.63,0,0,1,2.65-1.58l.45-.18c.52-.19,1.08-.36,1.67-.52a25.63,25.63,0,0,1,2.95-.59c.41-.07.82-.12,1.24-.16a36.69,36.69,0,0,1,4.12-.23c1.21,0,2.4.06,3.55.17.62.06,1.23.13,1.82.22a25.21,25.21,0,0,1,3,.59c.59.16,1.15.33,1.67.52l.45.18A8.63,8.63,0,0,1,37.15,9a2.83,2.83,0,0,1,1,2.1A13.92,13.92,0,0,1,37.06,16.55Zm-2.6-9.29L34.34,7l-.05-.14s0-.1-.07-.14-.1-.23-.15-.35h0l-.26-.09c-.16-.06-.33-.12-.51-.17h-.09L32.93,6l-.27-.08-.11,0-.42-.11-.15,0-.1,0h0l-.08,0a7.85,7.85,0,0,1,.61,1c.59.16,1.15.33,1.67.52l.45.18A.56.56,0,0,1,34.46,7.26Z"/></g><g id="r" class="cls-3"><g class="cls-3"><path class="cls-1" d="M5.39,6.92C1.77,6.92,0,8.58,0,12.2v9.37H2.32V12.78c0-2.68.94-4,3.49-4H7V6.92Z"/></g></g><g id="bot" class="cls-3"><g class="cls-3"><path class="cls-1" d="M50.5,6.92H48.07V8.8h2c3.51,0,4,2.18,4,5.36s-.47,5.53-4,5.53H47c-.77,0-.94-.36-.94-1V8.8h.07V6.92H46V2.21H43.7v17c0,1.85,1,2.37,2.71,2.37H50.5c4.71,0,6-2.84,6-7.41S55.21,6.92,50.5,6.92Z"/><path class="cls-1" d="M67.24,6.75c-5.26,0-7.52,1.91-7.52,7.44s2.26,7.55,7.52,7.55,7.52-2,7.52-7.55S72.49,6.75,67.24,6.75Zm0,13.11c-3.74,0-5.09-1.52-5.09-5.67s1.35-5.56,5.09-5.56,5.09,1.41,5.09,5.56S71,19.86,67.24,19.86Z"/><path class="cls-1" d="M85.74,8.8V6.92H81.65V2.21H79.33V6.92H77.17V8.8h2.16v8.07c0,3,1,4.7,4.67,4.7h1.74V19.69h-1c-2.24,0-3.12-.69-3.12-3V8.8Z"/></g></g><g id="FORCE" class="cls-3"><g class="cls-3"><path class="cls-1" d="M95.57,2.21c-1.69,0-2.71.67-2.71,2.74V21.57h2.57V12.92h.06v-2.1h-.06V5.62c0-1,.19-1.3,1.27-1.3h10.54V2.21Zm1.9,8.61v2.1h6.59v-2.1Z"/><path class="cls-1" d="M118.83,2c-7.08,0-9.66,2.49-9.66,9.9s2.58,9.91,9.66,9.91,9.65-2.49,9.65-9.91S126,2,118.83,2Zm0,17.7c-5.51,0-7-1.93-7-7.8s1.46-7.8,7-7.8,7,2,7,7.8S124.33,19.69,118.83,19.69Z"/><path class="cls-1" d="M141.89,14.38v-.13H145c3.35,0,4.4-2.47,4.4-6.17s-1.14-5.87-4.7-5.87h-9c-1.82,0-2.84.86-2.84,2.94V21.57h2.57V5.64c0-1,.5-1.32,1.38-1.32h6.89c2.6,0,3,1.35,3,3.76s-.23,4.06-2.58,4.06h-4.73c-.74,0-1.16.39-1.16,1v.44a1.82,1.82,0,0,0,.72,1.22l7.41,6.8h3.43Z"/><path class="cls-1" d="M162.5,19.47c-4.76,0-6.25-2.35-6.25-7.6s1.55-7.55,6.39-7.55h6.64V2.21h-7.5c-6.64,0-8.21,4.26-8.21,9.66s1.6,9.7,8.07,9.7h7.91v-2.1Z"/><path class="cls-1" d="M178,10.62v2.1h6.67v-2.1Zm-.76,8.85c-1.08,0-1.27-.36-1.27-1.33V12.72h.06v-2.1H176v-5c0-1,.19-1.3,1.27-1.3h10.84V2.21h-12c-1.69,0-2.71.67-2.71,2.74V18.84a2.41,2.41,0,0,0,2.71,2.73h12.08v-2.1Z"/></g></g></svg>